<?xml version="1.0" encoding="UTF-8"?>
<svg version="1.1" xmlns="http://www.w3.org/2000/svg" width="500" height="500">
<path d="M0 0 C14.52 0 29.04 0 44 0 C48.95 15.84 53.9 31.68 59 48 C60.75738463 45.36392306 61.57274212 43.59163671 62.49633789 40.63623047 C62.77324966 39.75877167 63.05016144 38.88131287 63.33546448 37.9772644 C63.62823776 37.03343903 63.92101105 36.08961365 64.22265625 35.1171875 C64.52819931 34.14717804 64.83374237 33.17716858 65.14854431 32.17776489 C66.12438569 29.07824256 67.0939365 25.97680362 68.0625 22.875 C69.03521435 19.76624617 70.00930992 16.65795185 70.98716736 13.55081177 C71.5957557 11.61647697 72.20126611 9.68117071 72.80348206 7.74484253 C73.07724167 6.87368805 73.35100128 6.00253357 73.63305664 5.10498047 C73.99373985 3.9494014 73.99373985 3.9494014 74.36170959 2.77047729 C75 1 75 1 76 0 C77.35094982 -0.09268999 78.70667091 -0.11747326 80.06079102 -0.11352539 C80.92160782 -0.11344986 81.78242462 -0.11337433 82.66932678 -0.11329651 C83.60473801 -0.10813522 84.54014923 -0.10297394 85.50390625 -0.09765625 C86.45692123 -0.0962413 87.40993622 -0.09482635 88.39183044 -0.09336853 C91.44875165 -0.08775152 94.50560077 -0.07519616 97.5625 -0.0625 C99.62955624 -0.05748719 101.69661362 -0.05292391 103.76367188 -0.04882812 C108.84247588 -0.03777656 113.9212257 -0.02050055 119 0 C118.21625 0.598125 117.4325 1.19625 116.625 1.8125 C113.70190463 4.24841281 112.12179867 5.77222268 111.73918152 9.62915039 C111.79072862 18.03071817 112.61955552 26.13383416 113.86328125 34.4375 C114.05837036 35.77450487 114.2529554 37.11158337 114.44706726 38.44873047 C114.85201838 41.22279372 115.26375692 43.99573897 115.68041992 46.76806641 C116.21220772 50.31096171 116.7252672 53.85628644 117.23324299 57.40266418 C117.62943784 60.1525457 118.03604458 62.90081118 118.44573021 65.64871216 C118.73266843 67.5870834 119.01038636 69.52681236 119.28791809 71.46655273 C119.46787827 72.64548096 119.64783844 73.82440918 119.83325195 75.0390625 C120.06308525 76.58907959 120.06308525 76.58907959 120.29756165 78.17041016 C121.07080696 81.28522737 122.11794208 83.40688827 124 86 C127.06680799 87.82629794 127.06680799 87.82629794 130 89 C130 89.33 130 89.66 130 90 C114.49 90 98.98 90 83 90 C86 88 86 88 88.6875 86.5625 C91.82760306 83.08292633 91.33050895 81.03975175 91.2331543 76.49243164 C90.80368534 70.05939143 89.87025048 63.70015012 88.91870117 57.32641602 C88.55872361 54.91217307 88.21111636 52.49637699 87.86523438 50.08007812 C87.64133427 48.54156328 87.41675048 47.00314774 87.19140625 45.46484375 C87.08719864 44.74409164 86.98299103 44.02333954 86.87562561 43.28074646 C86.33599777 39.5241835 86.33599777 39.5241835 85 36 C84.61142822 37.20124512 84.22285645 38.40249023 83.82250977 39.64013672 C82.38351579 44.08726997 80.94244243 48.53372706 79.50073242 52.97998047 C78.87646445 54.90622811 78.25276424 56.83265984 77.62963867 58.75927734 C76.73504655 61.52489787 75.83842975 64.28985478 74.94140625 67.0546875 C74.6622084 67.9193161 74.38301056 68.7839447 74.09535217 69.67477417 C73.83515793 70.47545319 73.57496368 71.2761322 73.30688477 72.10107422 C73.07816177 72.8072287 72.84943878 73.51338318 72.61378479 74.24093628 C72 76 72 76 71 78 C63.41 78 55.82 78 48 78 C46.32594218 73.14420843 44.65301959 68.28805511 42.98291016 63.4309082 C42.41520468 61.78094349 41.84685504 60.13120025 41.27783203 58.48168945 C40.45693517 56.10166361 39.63840889 53.72083345 38.8203125 51.33984375 C38.56814972 50.61039047 38.31598694 49.88093719 38.05618286 49.12937927 C36.56633366 44.78453256 35.22428571 40.42724066 34 36 C32.01776013 37.98223987 32.20024943 41.61553619 31.80859375 44.33203125 C31.69902847 45.07901779 31.5894632 45.82600433 31.47657776 46.59562683 C31.24492683 48.18671844 31.01558221 49.77814722 30.78833008 51.36987305 C30.4442351 53.76560743 30.08683054 56.15909156 29.72851562 58.55273438 C27.21580276 72.87470106 27.21580276 72.87470106 29 87 C32.51190809 88.22969878 32.51190809 88.22969878 36 89 C36 89.33 36 89.66 36 90 C20.49 90 4.98 90 -11 90 C-9.68 89.01 -8.36 88.02 -7 87 C-0.12322961 81.53903528 -0.25318961 70.80341258 0.9453125 62.64453125 C1.2074202 60.87658455 1.2074202 60.87658455 1.474823 59.07292175 C1.84168807 56.58629016 2.20631919 54.09932808 2.56884766 51.61206055 C3.12086035 47.84078155 3.68707962 44.07181136 4.25390625 40.30273438 C4.61025259 37.87512866 4.96574865 35.44739795 5.3203125 33.01953125 C5.48902863 31.90866653 5.65774475 30.79780182 5.83157349 29.65327454 C8.35084083 16.12350698 8.35084083 16.12350698 4.625 3.8125 C3.75875 3.214375 2.8925 2.61625 2 2 C1.34 1.34 0.68 0.68 0 0 Z " fill="#000000" transform="translate(256,202)"/>
<path d="M0 0 C10.38833778 -0.06972357 20.77661924 -0.12292438 31.16514397 -0.15543652 C35.98973777 -0.17104617 40.81417066 -0.19219796 45.63867188 -0.22631836 C50.30062553 -0.25908023 54.96242506 -0.27688831 59.62448502 -0.28463173 C61.39695789 -0.29014517 63.16942299 -0.30091111 64.94182968 -0.31719017 C87.78363037 -0.51851009 87.78363037 -0.51851009 97.2421875 7.12109375 C104.45401583 14.82973692 105.37920059 24.10403691 105.21875 34.16015625 C104.79630943 41.57549698 102.91333973 48.28990247 98 54 C95.43434009 55.86451803 92.75641421 57.43784328 90 59 C89.01 59.66 88.02 60.32 87 61 C94.30816567 72.13300003 101.5037341 81.64190238 112 90 C106.59269451 90.27334724 101.18945701 90.47212791 95.77685547 90.60424805 C93.93922865 90.65934131 92.10207924 90.73424833 90.26611328 90.82983398 C75.13792295 91.59732492 75.13792295 91.59732492 70.24829102 87.9440918 C68.12873038 85.07260476 66.57693368 82.19936051 65 79 C63.67535679 76.9230396 62.32981465 74.85927622 60.96484375 72.80859375 C59.61885986 70.68713514 58.27642679 68.56341964 56.9375 66.4375 C52.55438123 59.49298299 48.1393241 52.64679402 43.25219727 46.04321289 C42 44 42 44 42 41 C43.28632324 40.970271 43.28632324 40.970271 44.59863281 40.93994141 C47.78947642 40.86170479 50.9799474 40.77500657 54.17041016 40.68261719 C55.54955243 40.64440662 56.92879167 40.60953998 58.30810547 40.578125 C60.29416967 40.53230376 62.27991679 40.47333737 64.265625 40.4140625 C65.45961914 40.3826416 66.65361328 40.3512207 67.88378906 40.31884766 C70.85844432 40.01448384 72.59396839 39.74631327 75 38 C76.62064411 33.58006151 77.27109898 31.2199454 76.25 26.625 C74.99479418 23.98906777 74.14535833 22.41681493 71.33691406 21.39477539 C68.10256798 20.84839662 64.88108569 20.76408422 61.609375 20.68359375 C60.90476135 20.66281265 60.20014771 20.64203156 59.47418213 20.62062073 C57.23288319 20.55546163 54.99147136 20.49639752 52.75 20.4375 C51.22655103 20.39428274 49.70311329 20.35066743 48.1796875 20.30664062 C44.45324409 20.19981509 40.72667506 20.09845361 37 20 C37.09268563 27.66826404 37.20004359 35.33622428 37.31738281 43.00415039 C37.35555755 45.61022334 37.39043006 48.21634692 37.421875 50.82250977 C37.46777562 54.57847123 37.52572918 58.33408764 37.5859375 62.08984375 C37.59748871 63.24645004 37.60903992 64.40305634 37.62094116 65.5947113 C37.4285434 76.95094162 37.4285434 76.95094162 42.5 86.4375 C43.325 86.953125 44.15 87.46875 45 88 C45.99 88.99 45.99 88.99 47 90 C31.49 90 15.98 90 0 90 C1.65 88.68 3.3 87.36 5 86 C8.95379998 81.48137146 9.12532593 77.57308476 9.14526367 71.69018555 C9.15164352 70.41173264 9.15802338 69.13327972 9.16459656 67.81608582 C9.16612559 66.42296385 9.16723936 65.02984137 9.16796875 63.63671875 C9.17118414 62.2018887 9.17454843 60.76705898 9.17805481 59.33222961 C9.18403818 56.32540121 9.18589558 53.31860151 9.18530273 50.31176758 C9.18520128 46.47193984 9.19884015 42.63229768 9.21607494 38.79251385 C9.22723312 35.82840644 9.22922076 32.86434331 9.22869301 29.90021706 C9.22986788 28.48533299 9.23426184 27.07044759 9.24202538 25.65558434 C9.25189997 23.66974677 9.24766385 21.6838545 9.24291992 19.69799805 C9.24434494 18.57088913 9.24576996 17.44378021 9.24723816 16.28251648 C8.86583616 11.21874169 8.30010061 7.20259306 4.5 3.6875 C3.675 3.130625 2.85 2.57375 2 2 C1.34 1.34 0.68 0.68 0 0 Z " fill="#000000" transform="translate(6,202)"/>
<path d="M0 0 C14.19 0 28.38 0 43 0 C46.31421893 7.95412544 49.48546947 15.85443749 52.3984375 23.94921875 C53.2161162 26.20248471 54.0338255 28.45573957 54.8515625 30.70898438 C56.11179571 34.19222401 57.37081107 37.6758997 58.62890625 41.15991211 C64.54396326 57.57011925 64.54396326 57.57011925 70.8515625 73.83203125 C71.11488373 74.49990158 71.37820496 75.16777191 71.64950562 75.85588074 C74.30474402 82.3023322 77.54771627 85.63817301 83 90 C66.5 90 50 90 33 90 C36 88 36 88 38.625 86.6875 C41.59754054 84.98391658 41.59754054 84.98391658 42 80 C41.01 76.04 40.02 72.08 39 68 C27.78 68.33 16.56 68.66 5 69 C1.78920831 77.26925122 1.78920831 77.26925122 3 85 C5.30305165 86.89858275 5.30305165 86.89858275 8 88 C8.99 88.66 9.98 89.32 11 90 C-5.5 90 -22 90 -39 90 C-35 86 -35 86 -32.91821289 84.10864258 C-30.65513637 81.62090019 -29.59920264 79.36861472 -28.30859375 76.26171875 C-28.06129013 75.66654953 -27.81398651 75.07138031 -27.55918884 74.45817566 C-23.43336826 64.35914632 -19.79209437 54.0621266 -16.0625 43.8125 C-15.28226206 41.6763004 -14.50166508 39.5402319 -13.72070312 37.40429688 C-12.60707615 34.35810198 -11.49385901 31.31176813 -10.38356018 28.26435852 C-6.9471303 18.83357765 -3.47007213 9.4187672 0 0 Z M21 19 C19.49247107 23.26821354 17.99527041 27.53997809 16.5 31.8125 C15.85611328 33.63491211 15.85611328 33.63491211 15.19921875 35.49414062 C14.79316406 36.65751953 14.38710937 37.82089844 13.96875 39.01953125 C13.59169922 40.09307861 13.21464844 41.16662598 12.82617188 42.27270508 C11.85504148 45.0035786 11.85504148 45.0035786 12 48 C18.6 48 25.2 48 32 48 C30.76043294 44.18947904 29.5173008 40.38042901 28.26464844 36.57421875 C27.83962446 35.27903119 27.41675726 33.98313379 26.99609375 32.68652344 C26.39109605 30.82301637 25.77769187 28.96224511 25.1640625 27.1015625 C24.79748535 25.98088379 24.4309082 24.86020508 24.05322266 23.70556641 C23.17115358 20.90286842 23.17115358 20.90286842 21 19 Z " fill="#000000" transform="translate(160,202)"/>
<path d="M0 0 C16.5 0 33 0 50 0 C48.68 1.65 47.36 3.3 46 5 C44.89017067 10.74875622 47.63637634 14.39518358 50.6875 19 C51.12255859 19.68578125 51.55761719 20.3715625 52.00585938 21.078125 C54.73678412 25.31813853 57.69655711 29.19062442 61 33 C62.9444507 30.29659645 64.87926592 27.58643326 66.8125 24.875 C67.35970703 24.11445313 67.90691406 23.35390625 68.47070312 22.5703125 C73.98019808 15.37990413 73.98019808 15.37990413 75.9375 6.875 C75.06409072 3.46002426 75.06409072 3.46002426 71 0 C86.84 0 102.68 0 119 0 C119 0.66 119 1.32 119 2 C117.6015625 3.05078125 117.6015625 3.05078125 115.625 4.3125 C105.34451834 11.8383167 98.41204 24.56241094 91.40625 35.0234375 C89.12880515 38.40377086 86.75615551 41.67575973 84.28125 44.9140625 C77.82460596 53.5013473 73.30171173 59.56792623 74.4296875 70.6796875 C74.61789062 71.77539062 74.80609375 72.87109375 75 74 C75.10570312 74.99257813 75.21140625 75.98515625 75.3203125 77.0078125 C75.90820394 81.29816921 76.38468184 83.38468184 79.5 86.5 C80.325 86.995 81.15 87.49 82 88 C82.66 88.66 83.32 89.32 84 90 C68.49 90 52.98 90 37 90 C38.65 88.68 40.3 87.36 42 86 C47.36750183 79.8657122 47.01820431 71.13571993 46.76953125 63.3515625 C45.99469814 55.01062484 41.06669138 49.63538108 35.90039062 43.39160156 C32.25556832 38.80466948 29.04443725 33.90372517 25.75 29.0625 C16.25259447 14.67111903 16.25259447 14.67111903 3.6640625 3.15625 C2 2 2 2 0 0 Z " fill="#000000" transform="translate(381,202)"/>
</svg>
